<?xml version="1.0" encoding="utf-8"?>
<!-- Generator: Adobe Illustrator 28.2.0, SVG Export Plug-In . SVG Version: 6.00 Build 0)  -->
<svg version="1.1" id="Formorrow_x5F_logo" xmlns="http://www.w3.org/2000/svg" xmlns:xlink="http://www.w3.org/1999/xlink" x="0px"
	 y="0px" viewBox="0 0 1154 495.4" style="enable-background:new 0 0 1154 495.4;" xml:space="preserve">
<style type="text/css">
	.st0{fill:#0D3630;}
</style>
<g id="grow_ahead">
	<path id="d" class="st0" d="M650.5,315.6c0-3-0.2-5.1-0.5-6.3c-0.3-1.2-0.9-2-1.7-2.2c-0.3-0.1-1-0.2-1.8-0.3
		c-2.1-0.2-3.1-1-3.1-2.3c0-0.7,0.3-1.4,1-1.9c0.6-0.6,1.7-1.1,3.2-1.6c2-0.7,3.9-1.3,5.6-1.7c1.7-0.4,3-0.6,4-0.6
		c1,0,1.7,0.3,2,0.8c0.4,0.5,0.6,1.6,0.6,3.1c0,1.4-0.2,6.5-0.5,15.3c-0.4,8.8-0.5,16.8-0.5,24.1c0,10.3,0.1,17.4,0.3,21.5
		c0.2,4.1,0.6,6.5,1.1,7.3c0.3,0.5,1.3,0.8,3.2,1.1c1.9,0.3,2.8,1,2.8,2.2c0,1.2-1.5,2.5-4.4,3.9c-3,1.4-5.8,2-8.4,2
		c-1,0-1.7-0.3-2-0.8c-0.4-0.5-0.6-1.6-0.6-3.1v-1.7c0-0.6,0-0.9-0.1-1.2c-0.1-0.2-0.2-0.3-0.4-0.3c-0.5,0-1.3,0.4-2.4,1.3
		c-0.5,0.3-0.8,0.6-1,0.7c-2.3,1.6-4.5,2.7-6.7,3.4c-2.2,0.7-4.6,1-7.4,1c-7,0-12.7-2.5-17.1-7.4c-4.4-4.9-6.7-11.4-6.7-19.3
		c0-8.3,2.5-15.2,7.5-20.8c5-5.5,11.2-8.3,18.6-8.3c4.7,0,9.1,1.2,13.4,3.5c0.6,0.3,1,0.5,1.2,0.5c0.3,0,0.6-0.3,0.8-0.8
		c0.2-0.5,0.3-1.3,0.3-2.3V315.6z M650.5,342.8c0-4.6-1.2-8.1-3.6-10.5c-2.4-2.4-5.9-3.6-10.5-3.6c-5.3,0-9.6,2.1-12.9,6.4
		c-3.3,4.2-4.9,9.8-4.9,16.8c0,6.4,1.5,11.5,4.6,15.4c3,3.9,7,5.8,12,5.8c2.3,0,4.6-0.5,6.9-1.4c2.3-0.9,4.4-2.1,6.1-3.7
		c0.9-0.8,1.5-1.6,1.9-2.5c0.4-0.9,0.6-2.4,0.6-4.4v-1.5V342.8z"/>
	<path id="a_1_" class="st0" d="M590.9,346.4c0-0.4,0.1-0.9,0.1-1.3c0-0.5,0-1.1,0-2c0-5.3-0.8-9.2-2.5-11.5
		c-1.7-2.3-4.4-3.5-8.2-3.5c-1.9,0-3.7,0.4-5.2,1.1c-1.5,0.7-3,1.9-4.3,3.4c-0.3,0.3-0.7,0.9-1.3,1.6c-1.7,2.5-3.5,3.7-5.3,3.7
		c-1.1,0-2-0.3-2.6-1c-0.7-0.7-1-1.6-1-2.7c0-2.6,2-5,6-7.3c4-2.3,8.6-3.4,13.8-3.4c6.5,0,11.2,1.6,14.3,4.8c3.1,3.2,4.6,8.2,4.6,15
		c0,2,0,4.6-0.1,7.8c-0.1,3.2-0.1,5.5-0.1,6.8c0,6.4,0.2,10.4,0.5,12.1c0.3,1.7,0.9,2.6,1.8,2.6c0.3,0,0.8-0.1,1.3-0.2
		c0.5-0.1,0.9-0.2,1-0.2c0.5,0,0.9,0.1,1.1,0.4c0.3,0.3,0.4,0.7,0.4,1.2c0,1.2-0.8,2.5-2.4,3.7s-3.3,1.9-5,1.9
		c-2.1,0-4.3-2.2-6.8-6.7c-0.2-0.4-0.4-0.7-0.5-0.9h-0.7c-2.4,2.4-5,4.2-7.7,5.3c-2.7,1.2-5.7,1.7-8.9,1.7c-5.2,0-9.3-1.4-12.4-4.2
		c-3.1-2.8-4.6-6.6-4.6-11.3c0-5.6,2.1-10,6.2-13.1c4.1-3.1,9.8-4.7,17.2-4.7c1.9,0,3.7,0.1,5.6,0.2
		C587.1,346.1,589,346.2,590.9,346.4z M590.9,351c-1.9-0.3-3.6-0.5-5.1-0.7c-1.6-0.1-3-0.2-4.3-0.2c-5.3,0-9.3,1.1-12.1,3.2
		c-2.7,2.2-4.1,5.3-4.1,9.4c0,3.4,1,6.1,2.9,8c1.9,1.9,4.6,2.9,8,2.9c4.4,0,7.9-1.4,10.6-4.1c2.7-2.7,4.1-6.3,4.1-10.8V351z"/>
	<path id="e" class="st0" d="M546.1,349.2H513c-0.7,0-1.2,0.1-1.4,0.4c-0.3,0.3-0.4,0.8-0.4,1.6c0,6.5,1.7,11.9,5.2,16.1
		c3.5,4.2,7.9,6.3,13.3,6.3c2.1,0,4.1-0.3,6.1-1c2-0.7,3.8-1.7,5.4-3c0.8-0.7,2-1.8,3.5-3.5c1.5-1.7,2.7-2.5,3.7-2.5
		c0.6,0,1.1,0.2,1.5,0.6c0.4,0.4,0.6,0.8,0.6,1.4c0,0.8-0.2,1.6-0.7,2.5c-0.5,0.9-1.1,1.9-2,2.9c-2.6,2.9-5.7,5.1-9.1,6.6
		c-3.4,1.5-7.1,2.3-11.1,2.3c-7.5,0-13.7-2.6-18.6-7.8c-4.9-5.2-7.4-11.7-7.4-19.6c0-8.4,2.6-15.3,7.7-20.8
		c5.1-5.5,11.6-8.3,19.3-8.3c6.7,0,12,1.9,16,5.7c3.9,3.8,5.9,8.9,5.9,15.3c0,2.1-0.2,3.5-0.7,4.1
		C549.3,348.9,548.1,349.2,546.1,349.2z M513.2,344.7h26.5c0.8,0,1.3-0.1,1.6-0.4c0.3-0.3,0.4-0.9,0.4-1.7c0-4.1-1.4-7.5-4.1-10.2
		c-2.8-2.7-6.3-4.1-10.5-4.1c-2.2,0-4.4,0.5-6.4,1.5c-2,1-3.8,2.4-5.3,4.2c-1.2,1.5-2.2,3.1-3,4.8c-0.8,1.7-1.1,3.2-1.1,4.5
		c0,0.6,0.1,1,0.4,1.2C512,344.6,512.5,344.7,513.2,344.7z"/>
	<path id="h" class="st0" d="M455.8,331.6c0,0.6,0.1,1,0.2,1.2c0.1,0.2,0.3,0.3,0.5,0.3c0.5,0,1.2-0.6,2.1-1.9
		c0.8-1.1,1.4-1.9,1.9-2.5c1.6-1.9,3.5-3.3,5.7-4.2c2.2-0.9,4.6-1.4,7.4-1.4c5,0,9,1.3,12,3.9s5.1,6.5,6.3,11.8
		c0.2,0.9,0.4,2.1,0.5,3.5c0.1,1.4,0.2,3.3,0.2,5.7c0,0.8,0,2-0.1,3.7c0,1.7-0.1,3.1-0.1,4c0,2.2,0.1,6,0.2,11.2c0,0.4,0,0.7,0,0.9
		c0.1,1.7,0.3,2.8,0.6,3.4c0.3,0.6,0.8,1.1,1.5,1.5c0.3,0.2,0.8,0.4,1.6,0.6c1.7,0.5,2.5,1.2,2.5,2.1c0,1.1-0.8,1.9-2.5,2.4
		s-4.3,0.8-8.1,0.8c-3.7,0-6.4-0.3-8-0.8c-1.6-0.5-2.5-1.3-2.5-2.4c0-0.9,0.8-1.6,2.4-2.1c1.6-0.5,2.6-1.1,3-1.8
		c0.3-0.6,0.6-2.1,0.7-4.7c0.1-2.6,0.2-8.6,0.2-18.2c0-6.6-0.9-11.4-2.8-14.2c-1.9-2.8-4.9-4.2-9.2-4.2c-2.8,0-5.3,0.6-7.7,1.8
		c-2.4,1.2-4.5,3-6.3,5.5c-0.8,1-1.4,2.1-1.8,3.4c-0.3,1.3-0.5,3.1-0.5,5.6v3.9c0,7.9,0.1,13.2,0.2,16c0.1,2.8,0.4,4.5,0.7,5.1
		c0.4,0.7,1.4,1.2,3.1,1.8c1.6,0.5,2.4,1.2,2.4,2.1c0,1.1-0.8,1.9-2.5,2.4c-1.7,0.5-4.3,0.8-8,0.8c-3.7,0-6.4-0.3-8.1-0.8
		s-2.5-1.3-2.5-2.4c0-0.9,0.8-1.6,2.4-2.1c1.6-0.5,2.6-1.1,3.1-1.8c0.4-0.6,0.7-2.7,0.8-6.1c0.2-3.5,0.2-10.3,0.2-20.4
		c0-13.7-0.1-23.1-0.3-28.3c-0.2-5.2-0.6-8.2-1.2-9c-0.3-0.5-1.4-0.8-3.2-1.1c-1.9-0.3-2.8-1-2.8-2.2c0-0.7,0.3-1.3,0.9-1.8
		c0.6-0.6,1.6-1.1,3-1.7c1.9-0.7,3.7-1.3,5.5-1.7c1.8-0.4,3.1-0.7,3.9-0.7c1,0,1.8,0.3,2.2,0.8c0.4,0.5,0.6,1.6,0.6,3.1
		c0,0.5,0,1.7-0.1,3.6c-0.2,7.4-0.3,14.4-0.3,21V331.6z"/>
	<path id="a" class="st0" d="M421.9,346.4c0-0.4,0.1-0.9,0.1-1.3c0-0.5,0-1.1,0-2c0-5.3-0.8-9.2-2.5-11.5c-1.7-2.3-4.4-3.5-8.2-3.5
		c-1.9,0-3.7,0.4-5.2,1.1c-1.5,0.7-3,1.9-4.3,3.4c-0.3,0.3-0.7,0.9-1.3,1.6c-1.7,2.5-3.5,3.7-5.3,3.7c-1.1,0-2-0.3-2.6-1
		c-0.7-0.7-1-1.6-1-2.7c0-2.6,2-5,6-7.3c4-2.3,8.6-3.4,13.8-3.4c6.5,0,11.2,1.6,14.3,4.8c3.1,3.2,4.6,8.2,4.6,15c0,2,0,4.6-0.1,7.8
		c-0.1,3.2-0.1,5.5-0.1,6.8c0,6.4,0.2,10.4,0.5,12.1c0.3,1.7,0.9,2.6,1.8,2.6c0.3,0,0.8-0.1,1.3-0.2c0.5-0.1,0.9-0.2,1-0.2
		c0.5,0,0.9,0.1,1.1,0.4c0.3,0.3,0.4,0.7,0.4,1.2c0,1.2-0.8,2.5-2.4,3.7c-1.6,1.3-3.3,1.9-5,1.9c-2.1,0-4.3-2.2-6.8-6.7
		c-0.2-0.4-0.4-0.7-0.5-0.9h-0.7c-2.4,2.4-5,4.2-7.7,5.3c-2.7,1.2-5.7,1.7-8.9,1.7c-5.2,0-9.3-1.4-12.4-4.2
		c-3.1-2.8-4.6-6.6-4.6-11.3c0-5.6,2.1-10,6.2-13.1c4.1-3.1,9.8-4.7,17.2-4.7c1.9,0,3.7,0.1,5.6,0.2
		C418.1,346.1,420,346.2,421.9,346.4z M421.9,351c-1.9-0.3-3.6-0.5-5.1-0.7c-1.6-0.1-3-0.2-4.3-0.2c-5.3,0-9.3,1.1-12.1,3.2
		c-2.7,2.2-4.1,5.3-4.1,9.4c0,3.4,1,6.1,2.9,8c1.9,1.9,4.6,2.9,8,2.9c4.4,0,7.9-1.4,10.6-4.1c2.7-2.7,4.1-6.3,4.1-10.8V351z"/>
	<path id="w" class="st0" d="M329.6,368.1h0.7c4.3-8.2,7.7-15.7,10.4-22.4c2.7-6.7,4-11.1,4-13.2c0-0.6-0.1-1.1-0.4-1.5
		c-0.3-0.4-1-0.8-2.2-1.2c-0.1-0.1-0.4-0.2-0.7-0.3c-1.9-0.7-2.9-1.5-2.9-2.4c0-1.1,0.7-1.9,2.2-2.3c1.5-0.5,4-0.7,7.5-0.7
		c3.5,0,6.1,0.2,7.6,0.7c1.5,0.5,2.3,1.2,2.3,2.3c0,0.8-0.8,1.4-2.3,1.9c-0.7,0.2-1.3,0.5-1.7,0.6c-1,0.5-1.8,1.1-2.5,1.9
		c-0.6,0.8-1.3,2.2-2,4.2l-0.6,1.6c-10.9,28.3-17.6,42.5-20.2,42.5c-2.2,0-6.1-7-11.7-20.9c-1.6-3.9-2.8-6.9-3.7-9.1
		c-0.9,2.3-2.2,5.4-3.8,9.3c-5.7,13.8-9.5,20.7-11.5,20.7c-2.7,0-8.8-12.6-18.2-37.7l-0.8-2.1c-0.2-0.6-0.6-1.5-1-2.6
		c-1.4-3.7-2.5-6-3.3-6.7c-0.3-0.3-1.2-0.7-2.5-1.2c-1.4-0.5-2.1-1.2-2.1-2c0-1.1,0.8-1.9,2.5-2.4c1.6-0.5,4.3-0.8,8-0.8
		c4,0,6.8,0.2,8.5,0.7c1.7,0.5,2.5,1.3,2.5,2.5c0,0.9-1,1.7-2.9,2.3c-0.4,0.1-0.7,0.2-0.9,0.3c-0.7,0.2-1.2,0.6-1.5,1.2
		c-0.3,0.6-0.5,1.2-0.5,2c0,1.5,1.2,5.6,3.7,12.3c2.5,6.7,5.7,14.2,9.6,22.7h0.6c1.2-1.7,2.7-4.7,4.5-8.8c1.8-4.1,4-9.7,6.7-16.6
		c-1.2-3.4-2.1-6.1-2.8-7.9c-0.7-1.8-1.3-3-1.8-3.6c-0.6-0.7-1.6-1.3-3.1-1.8c-1.5-0.5-2.2-1.2-2.2-2.1c0-1.1,0.8-1.9,2.5-2.4
		c1.7-0.5,4.3-0.8,8-0.8c4,0,6.8,0.2,8.5,0.7c1.7,0.5,2.5,1.3,2.5,2.5c0,0.9-1,1.7-3,2.3c-0.3,0.1-0.6,0.2-0.9,0.3
		c-0.6,0.2-1.1,0.6-1.5,1.2c-0.4,0.6-0.5,1.2-0.5,2c0,1.5,1.2,5.6,3.7,12.3C322.5,352.1,325.7,359.7,329.6,368.1z"/>
	<path id="o" class="st0" d="M216.2,352.3c0-8.3,2.7-15.2,8.1-20.8c5.4-5.5,12.1-8.3,20.2-8.3c7.7,0,14,2.5,19,7.6
		c5,5.1,7.4,11.6,7.4,19.4c0,8.4-2.7,15.4-8,21s-12,8.4-19.9,8.4c-7.6,0-14-2.6-19.1-7.9C218.7,366.6,216.2,360.1,216.2,352.3z
		 M225.6,349.2c0,7.4,1.8,13.5,5.3,18.4c3.5,4.8,7.9,7.3,13.2,7.3c5.3,0,9.5-1.9,12.6-5.8c3.1-3.8,4.6-9.2,4.6-16
		c0-7.1-1.8-13-5.5-17.7s-8.2-7.1-13.7-7.1c-4.8,0-8.8,1.9-11.8,5.8C227.1,337.9,225.6,343,225.6,349.2z"/>
	<path id="r" class="st0" d="M194.4,333.6c2.2-3.4,4.6-6.1,7.1-7.9c2.5-1.8,4.9-2.8,7.3-2.8c2,0,3.5,0.6,4.7,1.8
		c1.2,1.2,1.8,2.8,1.8,4.8c0,1.7-0.5,3.2-1.7,4.3c-1.1,1.1-2.5,1.7-4.2,1.7c-1.5,0-2.7-0.5-3.7-1.4c-1-0.9-1.6-2.3-1.8-3.9
		c-3.7,1.2-6.3,3.1-7.7,5.6c-1.5,2.6-2.2,8.1-2.2,16.7c0,6.4,0.1,11.1,0.3,13.9c0.2,2.8,0.5,4.5,0.8,5.1c0.5,0.8,1.7,1.3,3.7,1.6
		c0.6,0.1,1.1,0.1,1.5,0.2c0.8,0.1,1.4,0.4,1.8,0.7c0.5,0.3,0.7,0.8,0.7,1.3c0,1.1-1,1.9-3,2.4c-2,0.5-5.1,0.8-9.3,0.8
		c-3.8,0-6.5-0.3-8.2-0.8c-1.7-0.5-2.5-1.3-2.5-2.4c0-0.9,0.7-1.6,2.2-2c1.5-0.5,2.4-0.9,2.7-1.2c0.6-0.5,1-1.6,1.2-3.4
		c0.2-1.8,0.3-4.9,0.3-9.3c0-6-0.1-11-0.2-15c-0.2-4-0.4-6.9-0.8-8.8c-0.2-1.5-0.6-2.5-1-3c-0.5-0.5-1.6-0.8-3.2-0.8h-1
		c-0.6,0-1.1-0.2-1.5-0.6c-0.4-0.4-0.7-0.9-0.7-1.5c0-0.7,0.3-1.3,0.8-1.8c0.5-0.5,1.5-1.1,2.9-1.8c1.8-0.9,3.5-1.7,5.1-2.3
		c1.6-0.6,2.8-0.9,3.5-0.9c0.9,0,1.7,0.8,2.2,2.3c0.5,1.5,1,4.2,1.3,8L194.4,333.6z"/>
	<path id="g" class="st0" d="M133.5,356.7c-2.5-1.6-4.4-3.5-5.6-5.9c-1.3-2.3-1.9-5-1.9-8.1c0-5.7,2.1-10.4,6.3-14.1
		c4.2-3.7,9.5-5.6,15.9-5.6c2.1,0,4.6,0.3,7.7,0.9c3,0.6,5.1,0.9,6.1,0.9c1.6,0,3.1-0.4,4.7-1.1c1.5-0.7,3-1.8,4.2-3.1
		c0.7,0.2,1.2,0.6,1.6,1.2c0.4,0.5,0.6,1.2,0.6,2.1c0,1.4-0.6,2.7-1.7,4c-1.1,1.3-2.7,2.4-4.9,3.3c0.9,1.5,1.6,3,2,4.5
		c0.4,1.5,0.7,3.1,0.7,4.7c0,5.7-2.2,10.4-6.5,14.2c-4.3,3.8-9.8,5.7-16.4,5.7c-1.6,0-3.1-0.2-4.7-0.5c-1.5-0.3-3-0.8-4.5-1.4
		c-1.5,0.6-2.8,1.5-3.7,2.7c-0.9,1.2-1.4,2.5-1.4,3.9c0,1.5,0.7,2.8,2.1,3.8c1.4,1,3.1,1.5,5.2,1.5c2.3,0,6-0.3,11.2-0.9
		c5.1-0.6,9.1-0.9,11.9-0.9c4.2,0,7.5,1.1,9.9,3.2c2.4,2.1,3.6,5,3.6,8.7c0,5.7-2.8,10.4-8.5,14.2s-12.8,5.7-21.5,5.7
		c-6.7,0-12.2-1.4-16.3-4.1c-4.1-2.7-6.2-6.3-6.2-10.7c0-2.1,0.5-4,1.6-5.6c1.1-1.6,2.8-3.1,5.2-4.6c-2-0.9-3.5-1.9-4.5-3.2
		c-1-1.3-1.5-2.8-1.5-4.6c0-2.3,0.8-4.3,2.3-6.2C128.2,359.6,130.5,358,133.5,356.7z M134.5,377c-1,1-1.9,2.2-2.4,3.6
		c-0.6,1.3-0.9,2.7-0.9,4.1c0,3.4,1.5,6,4.5,8c3,2,7,3,12.1,3c5.8,0,10.6-1.2,14.3-3.6c3.8-2.4,5.6-5.4,5.6-9c0-2.2-0.7-3.9-2.1-5
		c-1.4-1.2-3.4-1.7-6.1-1.7c-0.9,0-3.3,0.2-7.2,0.7c-3.9,0.5-7.3,0.7-10.3,0.7c-1.5,0-2.8-0.1-4-0.2
		C136.7,377.5,135.6,377.3,134.5,377z M134.4,341.7c0,4.3,1.2,7.8,3.5,10.5c2.3,2.7,5.4,4,9.1,4c3.9,0,7.1-1.3,9.6-4
		c2.5-2.7,3.8-6.1,3.8-10.3c0-4.4-1.2-7.9-3.7-10.6c-2.4-2.7-5.6-4-9.6-4c-3.6,0-6.7,1.4-9.1,4.1
		C135.6,334.1,134.4,337.6,134.4,341.7z"/>
</g>
<g id="Formorrow">
	<path id="w_1_" class="st0" d="M978,227.4c0,10,5,17.8,15.1,17.8c10,0,15.1-6.9,15.1-17.8v-70.5h28v73.9c0,21.5-10,39.3-37.7,39.3
		c-14.6,0-23-6.3-28-12.1c-5,7.1-13.4,12.1-26.6,12.1c-14.2,0-21.1-6.1-24.1-9.6v8.4h-28V156.9h28V227c0,11.1,5.2,18.2,15.3,18.2
		c9.8,0,14.9-7.1,14.9-17.8v-70.5h28V227.4z"/>
	<path id="o_3_" class="st0" d="M821.6,155c35.4,0,58.6,24.7,58.6,57.7c0,32.8-24.1,58-58.6,58c-34.9,0-58.4-24.5-58.4-57.5
		C763.2,179.9,787.9,155,821.6,155z M821.8,245.4c18.4,0,30.3-13.8,30.3-32.4c0-18.6-12.6-32.6-30.5-32.6
		c-18.4,0-30.3,13.8-30.3,32.6C791.3,231.8,803.8,245.4,821.8,245.4z"/>
	<path id="r_3_" class="st0" d="M760.1,185.8H753c-10.9,0-14.6,5.2-14.6,14.9v68.2h-28V156.9h28v9c4-5.6,10.3-9.4,21.8-9.4V185.8z"
		/>
	<path id="r_2_" class="st0" d="M698.8,185.8h-7.1c-10.9,0-14.6,5.2-14.6,14.9v68.2h-28V156.9h28v9c4-5.6,10.3-9.4,21.8-9.4V185.8z"
		/>
	<path id="o_2_" class="st0" d="M578.3,155c35.4,0,58.6,24.7,58.6,57.7c0,32.8-24.1,58-58.6,58c-34.9,0-58.4-24.5-58.4-57.5
		C519.9,179.9,544.6,155,578.3,155z M578.5,245.4c18.4,0,30.3-13.8,30.3-32.4c0-18.6-12.6-32.6-30.5-32.6
		c-18.4,0-30.3,13.8-30.3,32.6C548,231.8,560.5,245.4,578.5,245.4z"/>
	<path id="m" class="st0" d="M450,268.9h-28v-70.5c0-10.7-5-17.8-14.9-17.8c-10,0-15.3,7.1-15.3,18.2v70.1h-28V156.9h28v8.4
		c2.9-3.6,9.8-9.6,24.1-9.6c13.2,0,21.5,5,26.6,12.1c5-5.9,13.4-12.1,28-12.1c27.6,0,37.7,17.8,37.7,39.3v73.9h-28v-70.5
		c0-10.9-5-17.8-15.1-17.8c-10,0-15.1,7.7-15.1,17.8V268.9z"/>
	<path id="r_1_" class="st0" d="M352.3,185.8h-7.1c-10.9,0-14.6,5.2-14.6,14.9v68.2h-28V156.9h28v9c4-5.6,10.3-9.4,21.8-9.4V185.8z"
		/>
	<path id="o_1_" class="st0" d="M231.8,155c35.4,0,58.6,24.7,58.6,57.7c0,32.8-24.1,58-58.6,58c-34.9,0-58.4-24.5-58.4-57.5
		C173.4,179.9,198.1,155,231.8,155z M232,245.4c18.4,0,30.3-13.8,30.3-32.4c0-18.6-12.6-32.6-30.5-32.6c-18.4,0-30.3,13.8-30.3,32.6
		C201.5,231.8,214,245.4,232,245.4z"/>
	<path id="f" class="st0" d="M155.5,156.9H172v23.6h-16.5v88.3h-28v-88.3H117v-23.6h10.5v-5c0-22,8.8-36.2,35.6-36.2
		c1.5,0,6.3,0,9,0.2v23.4h-5.2c-9.4,0-11.3,6.1-11.3,12.8V156.9z"/>
</g>
</svg>
