<?xml version="1.0" encoding="UTF-8"?>
<svg id="Laag_1" data-name="Laag 1" xmlns="http://www.w3.org/2000/svg" viewBox="0 0 438.26 121.42">
  <defs>
    <style>
      .cls-1 {
        fill-rule: evenodd;
      }

      .cls-1, .cls-2 {
        fill: #00a3de;
      }
    </style>
  </defs>
  <path class="cls-2" d="M201.93,115.66c.22,.52,.55,.93,.97,1.23,.43,.3,.93,.52,1.52,.65,.59,.13,1.23,.2,1.92,.2,.49,0,.97-.06,1.46-.18,.49-.12,.93-.3,1.32-.55,.4-.24,.72-.56,.97-.94,.25-.38,.38-.85,.38-1.4s-.16-.96-.49-1.29c-.32-.33-.74-.62-1.26-.87-.52-.24-1.1-.46-1.76-.64-.66-.18-1.32-.38-1.99-.58-.69-.2-1.36-.45-2.01-.73-.65-.28-1.23-.65-1.75-1.09-.52-.45-.93-.99-1.25-1.64-.31-.65-.47-1.44-.47-2.37,0-1.22,.25-2.25,.76-3.1,.51-.85,1.17-1.54,1.98-2.08,.81-.54,1.73-.93,2.75-1.19,1.02-.25,2.06-.38,3.12-.38,1.11,0,2.16,.13,3.15,.38,.98,.25,1.84,.66,2.58,1.23,.74,.57,1.33,1.29,1.76,2.17,.44,.88,.65,1.95,.65,3.21h-4.53c.02-.61-.07-1.12-.26-1.54-.19-.41-.47-.75-.82-1.02-.35-.26-.77-.45-1.26-.56-.49-.11-1-.17-1.55-.17-.45,0-.9,.05-1.35,.14-.46,.09-.87,.24-1.23,.46-.37,.21-.66,.49-.88,.84-.22,.34-.33,.77-.33,1.28s.2,.97,.59,1.32c.4,.36,.87,.65,1.43,.88,.56,.23,1.13,.42,1.72,.55,.59,.13,1.06,.24,1.43,.32,.85,.22,1.63,.48,2.34,.78,.71,.29,1.32,.67,1.84,1.14,.52,.47,.92,1.03,1.2,1.7,.28,.67,.43,1.49,.43,2.46,0,1.3-.27,2.4-.81,3.31-.54,.91-1.23,1.65-2.07,2.22-.84,.57-1.79,.98-2.84,1.23-1.05,.25-2.1,.38-3.13,.38-3.04,0-5.31-.62-6.79-1.85-1.49-1.24-2.23-3.18-2.23-5.84h4.53c-.04,.77,.05,1.41,.27,1.93Z"/>
  <path class="cls-2" d="M218.21,110.8c.42-1.19,1.01-2.22,1.79-3.12,.78-.89,1.73-1.6,2.84-2.11,1.11-.52,2.37-.78,3.77-.78,1.07,0,2.06,.14,2.96,.41,.9,.27,1.68,.68,2.33,1.23,.65,.55,1.15,1.24,1.5,2.07,.35,.83,.53,1.81,.53,2.95,0,1.38-.21,2.67-.62,3.88-.41,1.21-1.02,2.25-1.81,3.15-.79,.89-1.75,1.59-2.87,2.1-1.12,.51-2.41,.76-3.85,.76-2.19,0-3.94-.56-5.24-1.69-1.31-1.12-1.96-2.81-1.96-5.06,0-1.34,.21-2.6,.62-3.78Zm3.89,5.12c.13,.43,.33,.8,.59,1.12,.26,.32,.59,.58,.97,.78,.38,.19,.83,.29,1.34,.29,.81,0,1.5-.22,2.08-.65,.58-.44,1.05-.98,1.43-1.64,.37-.66,.65-1.37,.84-2.14,.18-.77,.27-1.49,.27-2.16,0-1.05-.24-1.89-.71-2.52-.48-.63-1.29-.94-2.45-.94-.79,0-1.47,.22-2.05,.65-.58,.44-1.05,.98-1.41,1.63-.36,.65-.64,1.35-.82,2.11-.18,.76-.27,1.47-.27,2.14,0,.47,.07,.91,.2,1.34Z"/>
  <path class="cls-2" d="M244.49,99.23l-4.62,21.71h-4.29l4.59-21.71h4.32Z"/>
  <path class="cls-2" d="M251.73,105.22l-3.34,15.72h-4.32l3.31-15.72h4.35Zm-3.86-2.43l.79-3.56h4.35l-.79,3.56h-4.35Z"/>
  <path class="cls-2" d="M263.89,118.93c-.49,.85-1.15,1.46-1.99,1.84-.84,.38-1.75,.56-2.72,.56-1.91,0-3.38-.55-4.42-1.66-1.04-1.1-1.57-2.61-1.57-4.51,0-1.3,.17-2.56,.52-3.8,.34-1.24,.87-2.34,1.58-3.31,.71-.97,1.6-1.76,2.67-2.36,1.07-.6,2.34-.9,3.8-.9,.91,0,1.79,.2,2.63,.61,.84,.41,1.43,1.04,1.78,1.91h.06l1.73-8.09h4.32l-4.59,21.71h-4.16l.42-1.95-.06-.06Zm-3.79-10.25c-.6,.43-1.09,.96-1.47,1.61-.39,.65-.67,1.36-.85,2.13-.18,.77-.27,1.5-.27,2.19,0,.47,.06,.91,.2,1.34s.33,.8,.58,1.11c.25,.31,.57,.57,.96,.76,.38,.19,.83,.29,1.34,.29,.81,0,1.51-.22,2.1-.65,.59-.44,1.08-.99,1.48-1.66,.39-.67,.69-1.39,.88-2.17,.19-.78,.29-1.51,.29-2.17,0-1.03-.25-1.86-.76-2.48-.51-.62-1.29-.93-2.34-.93-.81,0-1.52,.21-2.11,.64Z"/>
  <path class="cls-2" d="M288.39,99.23l-4.59,21.71h-4.77l4.56-21.71h4.8Z"/>
  <path class="cls-2" d="M295.78,105.22l-.49,2.19h.06c1.4-1.74,3.23-2.62,5.5-2.62,3.06,0,4.59,1.41,4.59,4.23,0,.16-.02,.37-.06,.62-.04,.25-.09,.51-.14,.78-.05,.26-.1,.51-.15,.74-.05,.23-.09,.42-.11,.56l-1.95,9.21h-4.32l1.91-9.21c.04-.24,.1-.57,.17-.97,.07-.41,.11-.72,.11-.94,0-.47-.22-.85-.65-1.16s-.91-.46-1.41-.46c-.65,0-1.22,.13-1.72,.38-.5,.25-.92,.58-1.28,.99-.36,.41-.65,.87-.88,1.4-.23,.53-.41,1.06-.53,1.61l-1.76,8.36h-4.29l3.25-15.72h4.13Z"/>
  <path class="cls-2" d="M314.96,105.22l-.49,2.19h.06c1.4-1.74,3.23-2.62,5.5-2.62,3.06,0,4.59,1.41,4.59,4.23,0,.16-.02,.37-.06,.62-.04,.25-.09,.51-.14,.78-.05,.26-.1,.51-.15,.74-.05,.23-.09,.42-.11,.56l-1.95,9.21h-4.32l1.91-9.21c.04-.24,.09-.57,.17-.97,.07-.41,.11-.72,.11-.94,0-.47-.22-.85-.65-1.16-.44-.3-.91-.46-1.41-.46-.65,0-1.22,.13-1.72,.38-.5,.25-.92,.58-1.28,.99-.35,.41-.65,.87-.88,1.4-.23,.53-.41,1.06-.53,1.61l-1.76,8.36h-4.29l3.25-15.72h4.13Z"/>
  <path class="cls-2" d="M328.02,110.8c.41-1.19,1.01-2.22,1.79-3.12,.78-.89,1.73-1.6,2.84-2.11,1.11-.52,2.37-.78,3.77-.78,1.07,0,2.06,.14,2.96,.41,.9,.27,1.68,.68,2.33,1.23,.65,.55,1.15,1.24,1.5,2.07,.35,.83,.53,1.81,.53,2.95,0,1.38-.21,2.67-.62,3.88-.42,1.21-1.02,2.25-1.81,3.15-.79,.89-1.75,1.59-2.87,2.1-1.13,.51-2.41,.76-3.85,.76-2.19,0-3.94-.56-5.25-1.69-1.31-1.12-1.96-2.81-1.96-5.06,0-1.34,.21-2.6,.62-3.78Zm3.89,5.12c.13,.43,.33,.8,.59,1.12,.26,.32,.59,.58,.97,.78,.39,.19,.83,.29,1.34,.29,.81,0,1.5-.22,2.08-.65,.58-.44,1.05-.98,1.43-1.64,.37-.66,.65-1.37,.84-2.14,.18-.77,.27-1.49,.27-2.16,0-1.05-.24-1.89-.71-2.52-.48-.63-1.29-.94-2.45-.94-.79,0-1.47,.22-2.05,.65-.58,.44-1.05,.98-1.41,1.63-.36,.65-.64,1.35-.82,2.11-.18,.76-.27,1.47-.27,2.14,0,.47,.06,.91,.2,1.34Z"/>
  <path class="cls-2" d="M348.71,120.94l-2.07-15.72h4.44l.97,11.19h.06l5.56-11.19h4.56l-8.6,15.72h-4.92Z"/>
  <path class="cls-2" d="M364.85,107.52c.47-.66,1.03-1.19,1.7-1.6,.67-.41,1.42-.69,2.25-.87,.83-.17,1.69-.26,2.58-.26,.71,0,1.45,.05,2.22,.15,.77,.1,1.48,.3,2.13,.59,.65,.29,1.18,.71,1.6,1.25,.41,.54,.61,1.25,.59,2.14,0,.75-.11,1.63-.33,2.64l-1.4,6.32c-.08,.28-.14,.63-.17,1.05-.03,.42-.04,.77-.04,1.08,0,.26,.05,.57,.15,.91h-4.32v-1.55c-.59,.67-1.31,1.16-2.16,1.47-.85,.31-1.73,.47-2.64,.47-.85,0-1.6-.11-2.24-.33-.64-.22-1.17-.52-1.6-.9-.43-.38-.74-.81-.94-1.31-.2-.5-.3-1.02-.3-1.57,0-1.52,.52-2.74,1.57-3.65,1.04-.91,2.52-1.48,4.42-1.7,1.01-.12,1.89-.21,2.65-.27,.75-.06,1.37-.16,1.87-.29,.5-.13,.87-.32,1.11-.58,.24-.25,.36-.63,.36-1.14,0-.41-.09-.73-.27-.97-.18-.24-.41-.44-.68-.58-.27-.14-.57-.24-.88-.29-.31-.05-.61-.08-.9-.08-.77,0-1.46,.19-2.07,.56-.61,.38-.98,.96-1.13,1.75h-4.04c.14-.99,.45-1.82,.91-2.48Zm6.45,6.48c-.63,.07-1.26,.13-1.88,.17-.41,.04-.8,.11-1.19,.2-.38,.09-.72,.23-1.02,.41-.29,.18-.53,.43-.71,.75-.18,.31-.27,.71-.27,1.2,0,.59,.24,1.03,.71,1.32,.48,.29,1.03,.44,1.66,.44,.67,0,1.23-.11,1.69-.32,.46-.21,.84-.49,1.16-.82,.31-.33,.56-.71,.74-1.14,.18-.43,.34-.85,.46-1.28l.42-1.52c-.55,.32-1.13,.52-1.76,.59Z"/>
  <path class="cls-2" d="M391.72,105.22l-.67,2.89h-3.07l-1.61,7.81c-.04,.16-.07,.31-.09,.44-.02,.13-.03,.23-.03,.29,0,.28,.05,.5,.14,.65,.09,.15,.21,.27,.35,.35,.14,.08,.3,.13,.47,.14,.17,.01,.34,.01,.5,.01,.53,0,1.04-.03,1.55-.09l-.73,3.31c-.45,.04-.89,.08-1.34,.11-.45,.03-.9,.05-1.37,.05-.51,0-1.01-.05-1.5-.14-.5-.09-.94-.25-1.34-.49-.39-.23-.71-.55-.94-.96-.23-.4-.34-.93-.32-1.58,0-.2,.02-.43,.06-.68,.04-.25,.09-.52,.15-.81l1.76-8.42h-2.83l.67-2.89h2.77l.97-4.77h4.32l-.97,4.77h3.1Z"/>
  <path class="cls-2" d="M392.95,110.8c.42-1.19,1.01-2.22,1.79-3.12,.78-.89,1.73-1.6,2.84-2.11,1.11-.52,2.37-.78,3.77-.78,1.07,0,2.06,.14,2.96,.41,.9,.27,1.68,.68,2.32,1.23,.65,.55,1.15,1.24,1.51,2.07,.35,.83,.53,1.81,.53,2.95,0,1.38-.21,2.67-.62,3.88-.42,1.21-1.02,2.25-1.81,3.15s-1.75,1.59-2.87,2.1c-1.12,.51-2.41,.76-3.84,.76-2.19,0-3.94-.56-5.25-1.69-1.31-1.12-1.96-2.81-1.96-5.06,0-1.34,.21-2.6,.62-3.78Zm3.89,5.12c.13,.43,.33,.8,.59,1.12,.26,.32,.59,.58,.97,.78,.39,.19,.83,.29,1.34,.29,.81,0,1.51-.22,2.08-.65,.58-.44,1.05-.98,1.43-1.64,.37-.66,.65-1.37,.84-2.14,.18-.77,.27-1.49,.27-2.16,0-1.05-.24-1.89-.71-2.52-.48-.63-1.29-.94-2.45-.94-.79,0-1.47,.22-2.05,.65-.58,.44-1.05,.98-1.41,1.63-.37,.65-.64,1.35-.82,2.11-.18,.76-.27,1.47-.27,2.14,0,.47,.06,.91,.2,1.34Z"/>
  <path class="cls-2" d="M417.68,105.22l-.64,2.83,.06,.06c.49-1.09,1.22-1.92,2.2-2.48,.98-.56,2.05-.84,3.21-.84,.45,0,.89,.03,1.34,.09l-.88,4.2c-.3-.06-.61-.12-.91-.18-.3-.06-.61-.09-.91-.09-.83,0-1.54,.14-2.11,.43-.58,.28-1.06,.67-1.46,1.16-.4,.49-.71,1.04-.94,1.66-.23,.62-.42,1.26-.56,1.93l-1.46,6.96h-4.29l3.25-15.72h4.1Z"/>
  <path class="cls-1" d="M164.93,99.09c7.3-.08,15.74-4.48,20.57-8.61,13.15-10.38,18.72-29.42,13.25-45.27-.34-.99-.78-2.04-1.25-3.15-1.68-4-3.59-8.52-2.29-13.44,1.92-7.15,8.84-11.02,14.73-11.14h224.58L438.26,.02C422.19,.02,207.3,.02,207.31,.02c-7.85,.02-16.59,4.17-22.31,10.62h0c-8.02,8.65-10.76,22.48-6.68,33.63,2.29,5.39,7.51,17.79,.67,26.95-4.56,6.56-11.6,10.33-18.74,10.08H63.99l-3.67,17.77h104.6Z"/>
  <path class="cls-1" d="M178.33,44.31s0-.03-.01-.04c-.01-.03-.03-.06-.04-.09l.05,.13h0Z"/>
  <g>
    <polygon class="cls-1" points="73.83 0 70.07 17.29 51.45 17.29 55.06 0 73.83 0 73.83 0"/>
    <polygon class="cls-1" points="50.88 110.04 32.51 110.04 50.27 23.15 68.9 23.15 50.88 110.04 50.88 110.04"/>
  </g>
  <path class="cls-1" d="M107.79,46.3c2.66-12.5-5.31-15.27-12.11-15.27-7.55,0-12.76,5.12-14.85,7.47h-.17l1.32-6.21h-6.96l-9.34,43.89h7.39l5.09-23.92c2.54-11.92,10.49-14.6,14.69-14.6,7.22,0,8.58,3.86,6.96,11.5l-5.75,27.02h7.39l6.36-29.88h0Z"/>
  <path class="cls-1" d="M133.71,38.41l1.3-6.13h-7.39l1.16-5.46c.75-3.53,2.26-5.13,5.46-5.13,.92,0,2.08,.09,2.98,.17l1.41-6.62c-1.15-.08-2.22-.17-3.32-.17-7.22,0-12.05,3.02-13.47,9.65l-1.61,7.56h-6.04l-1.31,6.13h6.04l-8.03,37.77h7.4l8.02-37.77h7.39Z"/>
  <path class="cls-1" d="M156.45,31.02c-14.02,0-22.92,11.84-25.33,23.17-2.41,11.34,1.45,23.17,15.46,23.17s22.91-11.83,25.33-23.17c2.41-11.33-1.45-23.17-15.46-23.17Zm7.82,23.17c-1.25,5.88-5.75,16.79-16.33,16.79s-10.44-10.91-9.19-16.79c1.25-5.88,5.75-16.79,16.33-16.79s10.44,10.91,9.18,16.79Z"/>
  <path class="cls-1" d="M241.46,75.82l9.33-43.9h-7.39l-5.14,24.17c-1.35,6.38-5.87,14.6-15.19,14.6-4.79,0-7.96-2.43-6.43-9.65l6.2-29.12h-7.39l-6.71,31.55c-2.24,10.5,4.91,13.6,11.37,13.6,7.06,0,11.41-2.69,15.6-7.81l.13,.17-1.35,6.38h6.97Z"/>
  <path class="cls-1" d="M277.66,30.66c-7.97,0-12.38,4.96-14.68,7.47h-.17l1.32-6.21h-6.97l-13.03,61.27h7.39l4.68-21.98h.17c1.27,3.11,4.54,5.87,10.42,5.87,14.94,0,22.28-14.02,24.52-24.51,2.62-12.34-1.97-21.91-13.64-21.91Zm5.75,23.08c-2.05,9.65-7.38,16.95-15.44,16.95-4.7,0-11.34-3.11-8.86-14.77,1.52-7.13,5.14-18.63,15.8-18.63,11.41,0,9.7,10.82,8.5,16.45Z"/>
  <path class="cls-1" d="M322.07,30.66c-7.97,0-12.38,4.96-14.68,7.47h-.17l1.32-6.21h-6.96l-13.03,61.27h7.38l4.68-21.98h.17c1.27,3.11,4.54,5.87,10.41,5.87,14.94,0,22.29-14.02,24.52-24.51,2.63-12.34-1.97-21.91-13.64-21.91Zm5.76,23.08c-2.05,9.65-7.39,16.95-15.44,16.95-4.71,0-11.35-3.11-8.86-14.77,1.51-7.13,5.13-18.63,15.79-18.63,11.41,0,9.7,10.82,8.51,16.45Z"/>
  <path class="cls-1" d="M365.56,30.66c-14.02,0-22.91,11.84-25.32,23.17-2.41,11.34,1.45,23.17,15.47,23.17s22.91-11.83,25.32-23.17c2.41-11.33-1.44-23.17-15.46-23.17Zm7.83,23.17c-1.25,5.88-5.76,16.79-16.33,16.79s-10.44-10.91-9.19-16.79c1.25-5.88,5.75-16.79,16.33-16.79s10.44,10.91,9.19,16.79Z"/>
  <path class="cls-1" d="M394.71,50.3c1.36-6.38,6.86-11.75,13.75-11.75h2.77l1.63-7.64c-.55-.17-.96-.25-1.88-.25-5.53,0-10.13,3.44-14.16,8.56h-.17l1.55-7.3h-6.96l-9.34,43.9h7.39l5.43-25.52h0Z"/>
  <path class="cls-1" d="M436.93,38.05l1.3-6.13h-7.05l2.61-11.26h-7.39l-2.61,11.26h-5.96l-1.31,6.13h5.96l-6.16,28.96c-1.12,5.29-.4,9.39,6.89,9.39,.76,0,2.93-.33,5.67-.59l1.23-5.79h-2.6c-1.52,0-4.45,0-3.72-3.44l6.07-28.53h7.05Z"/>
  <polygon class="cls-1" points="3.67 81.26 0 99.03 27.73 98.98 31.39 81.26 3.67 81.26 3.67 81.26"/>
</svg>